{
    "asset" : {
        "generator" : "Khronos glTF Blender I/O v1.6.16",
        "version" : "2.0"
    },
    "scene" : 0,
    "scenes" : [
        {
            "name" : "Scene",
            "nodes" : [
                0
            ]
        }
    ],
    "nodes" : [
        {
            "mesh" : 0,
            "name" : "Sphere"
        }
    ],
    "meshes" : [
        {
            "name" : "Sphere.001",
            "primitives" : [
                {
                    "attributes" : {
                        "POSITION" : 0,
                        "NORMAL" : 1,
                        "TEXCOORD_0" : 2
                    },
                    "indices" : 3
                }
            ]
        }
    ],
    "accessors" : [
        {
            "bufferView" : 0,
            "componentType" : 5126,
            "count" : 1227,
            "max" : [
                0.9955037236213684,
                0.965433657169342,
                1.0245203971862793
            ],
            "min" : [
                -1.0017420053482056,
                -1.0286533832550049,
                -0.952028214931488
            ],
            "type" : "VEC3"
        },
        {
            "bufferView" : 1,
            "componentType" : 5126,
            "count" : 1227,
            "type" : "VEC3"
        },
        {
            "bufferView" : 2,
            "componentType" : 5126,
            "count" : 1227,
            "type" : "VEC2"
        },
        {
            "bufferView" : 3,
            "componentType" : 5123,
            "count" : 6132,
            "type" : "SCALAR"
        }
    ],
    "bufferViews" : [
        {
            "buffer" : 0,
            "byteLength" : 14724,
            "byteOffset" : 0
        },
        {
            "buffer" : 0,
            "byteLength" : 14724,
            "byteOffset" : 14724
        },
        {
            "buffer" : 0,
            "byteLength" : 9816,
            "byteOffset" : 29448
        },
        {
            "buffer" : 0,
            "byteLength" : 12264,
            "byteOffset" : 39264
        }
    ],
    "buffers" : [
        {
            "byteLength" : 51528,
            "uri" : "data:application/octet-stream;base64,"
        }
    ]
}
