<svg width="60" height="59" viewBox="0 0 60 59" fill="none" xmlns="http://www.w3.org/2000/svg">
<path d="M29.5713 0L29.5712 58.6429" stroke="#EBEBEB" stroke-width="2"/>
<path d="M58.8931 28.8204L0.250174 28.8204" stroke="#EBEBEB" stroke-width="2"/>
<circle cx="29.75" cy="29.5" r="28.5" stroke="#EBEBEB" stroke-width="2"/>
<path d="M42.9316 29.5C42.9316 37.5246 41.3032 44.7401 38.717 49.9124C36.101 55.1446 32.6719 58 29.1816 58C25.6914 58 22.2623 55.1446 19.6462 49.9124C17.0601 44.7401 15.4316 37.5246 15.4316 29.5C15.4316 21.4754 17.0601 14.2599 19.6462 9.08756C22.2623 3.85542 25.6914 1 29.1816 1C32.6719 1 36.101 3.85542 38.717 9.08756C41.3032 14.2599 42.9316 21.4754 42.9316 29.5Z" stroke="#EBEBEB" stroke-width="2"/>
</svg>
