<svg width="107" height="50" viewBox="0 0 107 50" fill="none" xmlns="http://www.w3.org/2000/svg">
<mask id="path-1-outside-1_58_722" maskUnits="userSpaceOnUse" x="0.75" y="0" width="106" height="50" fill="black">
<rect fill="white" x="0.75" width="106" height="50"/>
<path fill-rule="evenodd" clip-rule="evenodd" d="M17.0938 13.0965C17.0938 13.2996 17.0991 13.5014 17.1098 13.7019H2.75V24.1989H17.502L9.09879 48H21.6008L28.134 29.8174L34.6673 48H47.1693L38.7661 24.1989H53.7499V13.7019H38.9918C39.0024 13.5014 39.0078 13.2996 39.0078 13.0965C39.0078 6.96805 34.1022 2 28.0508 2C21.9994 2 17.0938 6.96805 17.0938 13.0965ZM68.0938 13.0965C68.0938 13.2996 68.0992 13.5014 68.1099 13.7019H53.7501V24.1989H68.5021L60.0989 48H72.6009L79.1341 29.8174L85.6674 48H98.1694L89.7662 24.1989H104.75V13.7019H89.9919C90.0025 13.5014 90.0079 13.2996 90.0079 13.0965C90.0079 6.96805 85.1023 2 79.0509 2C72.9995 2 68.0938 6.96805 68.0938 13.0965Z"/>
</mask>
<path d="M17.1098 13.7019V15.7019H19.2188L19.107 13.5958L17.1098 13.7019ZM2.75 13.7019V11.7019H0.75V13.7019H2.75ZM2.75 24.1989H0.75V26.1989H2.75V24.1989ZM17.502 24.1989L19.3879 24.8647L20.3291 22.1989H17.502V24.1989ZM9.09879 48L7.21288 47.3342L6.27168 50H9.09879V48ZM21.6008 48V50H23.0073L23.483 48.6763L21.6008 48ZM28.134 29.8174L30.0162 29.1411L28.134 23.9029L26.2519 29.1411L28.134 29.8174ZM34.6673 48L32.7851 48.6763L33.2607 50H34.6673V48ZM47.1693 48V50H49.9964L49.0552 47.3342L47.1693 48ZM38.7661 24.1989V22.1989H35.939L36.8802 24.8647L38.7661 24.1989ZM53.7499 24.1989V26.1989H55.7499V24.1989H53.7499ZM53.7499 13.7019H55.7499V11.7019H53.7499V13.7019ZM38.9918 13.7019L36.9946 13.5958L36.8827 15.7019H38.9918V13.7019ZM68.1099 13.7019V15.7019H70.2188L70.1071 13.5959L68.1099 13.7019ZM53.7501 13.7019V11.7019H51.7501V13.7019H53.7501ZM53.7501 24.1989H51.7501V26.1989H53.7501V24.1989ZM68.5021 24.1989L70.388 24.8647L71.3292 22.1989H68.5021V24.1989ZM60.0989 48L58.213 47.3342L57.2718 50H60.0989V48ZM72.6009 48V50H74.0074L74.483 48.6763L72.6009 48ZM79.1341 29.8174L81.0163 29.1411L79.1341 23.9029L77.2519 29.1411L79.1341 29.8174ZM85.6674 48L83.7852 48.6763L84.2608 50H85.6674V48ZM98.1694 48V50H100.996L100.055 47.3342L98.1694 48ZM89.7662 24.1989V22.1989H86.939L87.8802 24.8647L89.7662 24.1989ZM104.75 24.1989V26.1989H106.75V24.1989H104.75ZM104.75 13.7019H106.75V11.7019H104.75V13.7019ZM89.9919 13.7019L87.9947 13.5958L87.8829 15.7019H89.9919V13.7019ZM19.107 13.5958C19.0982 13.4307 19.0938 13.2642 19.0938 13.0965H15.0938C15.0938 13.335 15.1001 13.5722 15.1126 13.8079L19.107 13.5958ZM2.75 15.7019H17.1098V11.7019H2.75V15.7019ZM4.75 24.1989V13.7019H0.75V24.1989H4.75ZM17.502 22.1989H2.75V26.1989H17.502V22.1989ZM10.9847 48.6658L19.3879 24.8647L15.6161 23.533L7.21288 47.3342L10.9847 48.6658ZM21.6008 46H9.09879V50H21.6008V46ZM26.2519 29.1411L19.7186 47.3237L23.483 48.6763L30.0162 30.4937L26.2519 29.1411ZM36.5495 47.3237L30.0162 29.1411L26.2519 30.4937L32.7851 48.6763L36.5495 47.3237ZM47.1693 46H34.6673V50H47.1693V46ZM36.8802 24.8647L45.2834 48.6658L49.0552 47.3342L40.652 23.533L36.8802 24.8647ZM53.7499 22.1989H38.7661V26.1989H53.7499V22.1989ZM51.7499 13.7019V24.1989H55.7499V13.7019H51.7499ZM38.9918 15.7019H53.7499V11.7019H38.9918V15.7019ZM37.0078 13.0965C37.0078 13.2642 37.0033 13.4307 36.9946 13.5958L40.9889 13.8079C41.0015 13.5722 41.0078 13.335 41.0078 13.0965H37.0078ZM28.0508 4C32.9738 4 37.0078 8.0487 37.0078 13.0965H41.0078C41.0078 5.8874 35.2305 0 28.0508 0V4ZM19.0938 13.0965C19.0938 8.0487 23.1277 4 28.0508 4V0C20.871 0 15.0938 5.8874 15.0938 13.0965H19.0938ZM70.1071 13.5959C70.0983 13.4307 70.0938 13.2642 70.0938 13.0965H66.0938C66.0938 13.335 66.1002 13.5722 66.1127 13.8079L70.1071 13.5959ZM53.7501 15.7019H68.1099V11.7019H53.7501V15.7019ZM55.7501 24.1989V13.7019H51.7501V24.1989H55.7501ZM68.5021 22.1989H53.7501V26.1989H68.5021V22.1989ZM61.9848 48.6658L70.388 24.8647L66.6161 23.533L58.213 47.3342L61.9848 48.6658ZM72.6009 46H60.0989V50H72.6009V46ZM77.2519 29.1411L70.7187 47.3237L74.483 48.6763L81.0163 30.4937L77.2519 29.1411ZM87.5496 47.3237L81.0163 29.1411L77.2519 30.4937L83.7852 48.6763L87.5496 47.3237ZM98.1694 46H85.6674V50H98.1694V46ZM87.8802 24.8647L96.2835 48.6658L100.055 47.3342L91.6521 23.533L87.8802 24.8647ZM104.75 22.1989H89.7662V26.1989H104.75V22.1989ZM102.75 13.7019V24.1989H106.75V13.7019H102.75ZM89.9919 15.7019H104.75V11.7019H89.9919V15.7019ZM88.0079 13.0965C88.0079 13.2642 88.0034 13.4307 87.9947 13.5958L91.989 13.8079C92.0016 13.5722 92.0079 13.3349 92.0079 13.0965H88.0079ZM79.0509 4C83.9739 4 88.0079 8.0487 88.0079 13.0965H92.0079C92.0079 5.8874 86.2306 0 79.0509 0V4ZM70.0938 13.0965C70.0938 8.0487 74.1278 4 79.0509 4V0C71.8711 0 66.0938 5.8874 66.0938 13.0965H70.0938Z" fill="#EBEBEB" mask="url(#path-1-outside-1_58_722)"/>
</svg>
