<svg width="1025" height="197" viewBox="0 0 1025 197" fill="none" xmlns="http://www.w3.org/2000/svg">
<path d="M0 0.999986H1023" stroke="#EBEBEB" stroke-width="2"/>
<path d="M0 185H264" stroke="#EBEBEB" stroke-width="2"/>
<path d="M757 185L1023 185" stroke="#EBEBEB" stroke-width="2"/>
<path d="M78.795 43C91.2363 43 100.959 46.3796 107.963 53.1389C115.059 59.8056 118.607 69.0648 118.607 80.9167C118.607 92.7685 115.059 102.074 107.963 108.833C100.959 115.5 91.2363 118.833 78.795 118.833H34.5592V143H0V43H78.795ZM70.5008 89.6667C73.2655 89.6667 75.4312 89.5278 76.9979 89.25C78.6567 88.9722 79.993 88.2315 81.0068 87.0278C82.1127 85.7315 82.6656 83.6944 82.6656 80.9167C82.6656 78.1389 82.1127 76.1481 81.0068 74.9444C79.993 73.6482 78.6567 72.8611 76.9979 72.5833C75.4312 72.3056 73.2655 72.1667 70.5008 72.1667H34.5592V89.6667H70.5008Z" fill="#EBEBEB"/>
<path d="M173.903 43V113.833H238.874V143H139.344V43H173.903Z" fill="#EBEBEB"/>
<path d="M402.866 143H366.095L357.939 125.5H303.198L295.042 143H258.271L305.962 43H355.175L402.866 143ZM330.568 66.8889L314.809 100.5H346.327L330.568 66.8889Z" fill="#EBEBEB"/>
<path d="M519.291 109.111V43H553.85V143H502.702L455.425 76.8889V143H420.866V43H472.014L519.291 109.111Z" fill="#EBEBEB"/>
<path d="M679.65 43V69.3889H611.914V79.8056H676.885V106.194H611.914V116.611H679.65V143H577.355V43H679.65Z" fill="#EBEBEB"/>
<path d="M818 43V72.1667H775.838V143H741.279V72.1667H699.116V43H818Z" fill="#EBEBEB"/>
<path d="M293.35 196.32C291.408 196.32 289.616 196.043 287.974 195.488C286.331 194.933 284.891 194.133 283.654 193.088C282.438 192.043 281.488 190.805 280.806 189.376C280.144 187.947 279.814 186.368 279.814 184.64C279.814 182.912 280.155 181.333 280.838 179.904C281.52 178.475 282.47 177.237 283.686 176.192C284.902 175.147 286.331 174.347 287.974 173.792C289.616 173.237 291.419 172.96 293.382 172.96C294.619 172.96 295.824 173.088 296.998 173.344C298.192 173.6 299.302 173.984 300.326 174.496C301.371 174.987 302.299 175.584 303.11 176.288L299.11 181.408C298.726 181.024 298.246 180.661 297.67 180.32C297.115 179.979 296.464 179.701 295.718 179.488C294.971 179.275 294.107 179.168 293.126 179.168C292.336 179.168 291.568 179.285 290.822 179.52C290.096 179.755 289.435 180.107 288.838 180.576C288.262 181.024 287.792 181.6 287.43 182.304C287.088 182.987 286.918 183.797 286.918 184.736C286.918 185.589 287.099 186.357 287.462 187.04C287.824 187.723 288.326 188.299 288.966 188.768C289.627 189.237 290.374 189.589 291.206 189.824C292.038 190.059 292.923 190.176 293.862 190.176C294.822 190.176 295.675 190.048 296.422 189.792C297.168 189.515 297.83 189.184 298.406 188.8C299.003 188.395 299.515 188.021 299.942 187.68L303.206 192.896C302.587 193.451 301.766 193.995 300.742 194.528C299.718 195.04 298.566 195.467 297.286 195.808C296.027 196.149 294.715 196.32 293.35 196.32ZM321.287 196.32C319.303 196.32 317.479 196.032 315.815 195.456C314.172 194.859 312.743 194.037 311.527 192.992C310.332 191.947 309.404 190.709 308.743 189.28C308.103 187.851 307.783 186.304 307.783 184.64C307.783 182.955 308.113 181.408 308.775 180C309.436 178.571 310.364 177.333 311.559 176.288C312.775 175.243 314.204 174.432 315.847 173.856C317.489 173.259 319.292 172.96 321.255 172.96C323.26 172.96 325.084 173.248 326.727 173.824C328.369 174.4 329.788 175.221 330.983 176.288C332.199 177.333 333.127 178.571 333.767 180C334.428 181.408 334.759 182.944 334.759 184.608C334.759 186.315 334.428 187.883 333.767 189.312C333.127 190.72 332.199 191.957 330.983 193.024C329.788 194.069 328.369 194.88 326.727 195.456C325.084 196.032 323.271 196.32 321.287 196.32ZM321.287 189.92C322.225 189.92 323.089 189.792 323.878 189.536C324.668 189.259 325.34 188.885 325.895 188.416C326.471 187.925 326.919 187.36 327.239 186.72C327.559 186.08 327.719 185.387 327.719 184.64C327.719 183.893 327.559 183.2 327.239 182.56C326.919 181.92 326.471 181.365 325.895 180.896C325.34 180.405 324.657 180.032 323.847 179.776C323.057 179.499 322.204 179.36 321.287 179.36C320.348 179.36 319.484 179.499 318.695 179.776C317.905 180.032 317.212 180.395 316.615 180.864C316.039 181.333 315.591 181.899 315.271 182.56C314.972 183.2 314.823 183.893 314.823 184.64C314.823 185.387 314.972 186.091 315.271 186.752C315.591 187.392 316.039 187.947 316.615 188.416C317.212 188.885 317.905 189.259 318.695 189.536C319.484 189.792 320.348 189.92 321.287 189.92ZM341.533 196V173.6H347.901L360.701 187.84L359.421 187.392C359.293 186.475 359.197 185.675 359.133 184.992C359.069 184.288 359.005 183.648 358.941 183.072C358.898 182.475 358.855 181.909 358.813 181.376C358.791 180.843 358.781 180.288 358.781 179.712C358.781 179.136 358.781 178.485 358.781 177.76V173.6H365.437V196H359.005L345.149 180.32L347.549 181.088C347.634 181.579 347.709 182.037 347.773 182.464C347.858 182.891 347.922 183.339 347.965 183.808C348.007 184.256 348.05 184.757 348.093 185.312C348.135 185.867 348.157 186.517 348.157 187.264C348.178 188.011 348.189 188.885 348.189 189.888V196H341.533ZM382.94 196.32C381.105 196.32 379.441 196.149 377.948 195.808C376.455 195.445 375.121 194.976 373.948 194.4C372.796 193.824 371.761 193.173 370.844 192.448L374.108 187.424C375.708 188.661 377.319 189.515 378.94 189.984C380.583 190.432 382.055 190.656 383.356 190.656C383.783 190.656 384.22 190.624 384.668 190.56C385.137 190.496 385.532 190.379 385.852 190.208C386.172 190.016 386.332 189.717 386.332 189.312C386.332 189.056 386.247 188.843 386.076 188.672C385.905 188.501 385.66 188.352 385.34 188.224C385.041 188.096 384.679 188 384.252 187.936C383.847 187.851 383.377 187.776 382.844 187.712C382.332 187.648 381.777 187.584 381.18 187.52C379.751 187.328 378.471 187.04 377.34 186.656C376.231 186.272 375.281 185.792 374.492 185.216C373.724 184.619 373.137 183.925 372.732 183.136C372.327 182.347 372.124 181.44 372.124 180.416C372.124 179.243 372.401 178.197 372.956 177.28C373.511 176.341 374.279 175.552 375.26 174.912C376.263 174.272 377.393 173.792 378.652 173.472C379.932 173.131 381.287 172.96 382.716 172.96C384.401 172.96 385.863 173.109 387.1 173.408C388.337 173.685 389.404 174.069 390.3 174.56C391.217 175.051 391.985 175.573 392.604 176.128L389.244 180.448C388.647 180.085 387.975 179.776 387.228 179.52C386.481 179.243 385.713 179.04 384.924 178.912C384.156 178.763 383.42 178.688 382.716 178.688C382.033 178.688 381.436 178.731 380.924 178.816C380.433 178.88 380.039 179.008 379.74 179.2C379.441 179.371 379.292 179.627 379.292 179.968C379.292 180.267 379.463 180.512 379.804 180.704C380.145 180.896 380.561 181.045 381.052 181.152C381.564 181.259 382.076 181.344 382.588 181.408C383.1 181.451 383.527 181.493 383.868 181.536C385.105 181.685 386.3 181.899 387.452 182.176C388.604 182.432 389.628 182.816 390.524 183.328C391.441 183.819 392.156 184.501 392.668 185.376C393.18 186.229 393.436 187.339 393.436 188.704C393.436 190.347 392.967 191.733 392.028 192.864C391.089 193.995 389.831 194.859 388.252 195.456C386.673 196.032 384.903 196.32 382.94 196.32ZM410.952 196.192C408.733 196.192 406.77 195.765 405.064 194.912C403.378 194.059 402.066 192.875 401.128 191.36C400.189 189.845 399.72 188.128 399.72 186.208V173.6H406.696V186.016C406.696 186.869 406.877 187.616 407.24 188.256C407.602 188.896 408.104 189.397 408.744 189.76C409.384 190.101 410.12 190.272 410.952 190.272C411.805 190.272 412.562 190.101 413.224 189.76C413.906 189.397 414.429 188.896 414.792 188.256C415.176 187.616 415.368 186.869 415.368 186.016V173.6H422.184V186.208C422.184 188.128 421.714 189.845 420.776 191.36C419.837 192.875 418.525 194.059 416.84 194.912C415.154 195.765 413.192 196.192 410.952 196.192ZM430.283 196V173.6H436.235L445.547 186.528L440.939 186.496L450.283 173.6H456.171V196H449.515V190.464C449.515 188.629 449.557 186.944 449.643 185.408C449.728 183.851 449.899 182.283 450.155 180.704L450.859 182.816L444.235 191.296H442.123L435.499 182.72L436.299 180.704C436.555 182.24 436.725 183.776 436.811 185.312C436.896 186.848 436.939 188.565 436.939 190.464V196H430.283ZM464.314 196V173.6H483.546V179.2H470.938V190.4H484.122V196H464.314ZM467.802 187.296V182.048H482.362V187.296H467.802ZM588.186 196L578.49 173.6H585.402L589.338 183.264C589.508 183.712 589.7 184.192 589.914 184.704C590.127 185.195 590.34 185.717 590.554 186.272C590.767 186.827 590.97 187.424 591.162 188.064C591.375 188.683 591.578 189.376 591.77 190.144H590.554C590.831 189.184 591.098 188.331 591.354 187.584C591.631 186.837 591.908 186.123 592.186 185.44C592.484 184.757 592.772 184.043 593.05 183.296L596.954 173.6H603.674L594.074 196H588.186ZM602.732 196L612.972 173.6H618.7L628.908 196H621.996L617.068 185.12C616.812 184.565 616.588 184.064 616.396 183.616C616.226 183.147 616.066 182.709 615.916 182.304C615.788 181.899 615.66 181.483 615.532 181.056C615.404 180.629 615.276 180.171 615.148 179.68H616.396C616.268 180.192 616.14 180.661 616.012 181.088C615.884 181.515 615.735 181.941 615.564 182.368C615.415 182.773 615.244 183.2 615.052 183.648C614.86 184.075 614.647 184.565 614.412 185.12L609.516 196H602.732ZM607.724 192.864L609.772 188.16H621.932L623.244 192.864H607.724ZM633.533 196V173.6H639.901L652.701 187.84L651.421 187.392C651.293 186.475 651.197 185.675 651.133 184.992C651.069 184.288 651.005 183.648 650.941 183.072C650.898 182.475 650.855 181.909 650.813 181.376C650.791 180.843 650.781 180.288 650.781 179.712C650.781 179.136 650.781 178.485 650.781 177.76V173.6H657.437V196H651.005L637.149 180.32L639.549 181.088C639.634 181.579 639.709 182.037 639.773 182.464C639.858 182.891 639.922 183.339 639.965 183.808C640.007 184.256 640.05 184.757 640.093 185.312C640.135 185.867 640.157 186.517 640.157 187.264C640.178 188.011 640.189 188.885 640.189 189.888V196H633.533ZM666.012 196V190.272H671.196V179.328H666.012V173.6H683.292V179.328H678.108V190.272H683.292V196H666.012ZM701.284 196.32C699.449 196.32 697.785 196.149 696.292 195.808C694.798 195.445 693.465 194.976 692.292 194.4C691.14 193.824 690.105 193.173 689.188 192.448L692.452 187.424C694.052 188.661 695.662 189.515 697.284 189.984C698.926 190.432 700.398 190.656 701.7 190.656C702.126 190.656 702.564 190.624 703.012 190.56C703.481 190.496 703.876 190.379 704.196 190.208C704.516 190.016 704.676 189.717 704.676 189.312C704.676 189.056 704.59 188.843 704.42 188.672C704.249 188.501 704.004 188.352 703.684 188.224C703.385 188.096 703.022 188 702.596 187.936C702.19 187.851 701.721 187.776 701.188 187.712C700.676 187.648 700.121 187.584 699.524 187.52C698.094 187.328 696.814 187.04 695.684 186.656C694.574 186.272 693.625 185.792 692.836 185.216C692.068 184.619 691.481 183.925 691.076 183.136C690.67 182.347 690.468 181.44 690.468 180.416C690.468 179.243 690.745 178.197 691.3 177.28C691.854 176.341 692.622 175.552 693.604 174.912C694.606 174.272 695.737 173.792 696.996 173.472C698.276 173.131 699.63 172.96 701.06 172.96C702.745 172.96 704.206 173.109 705.444 173.408C706.681 173.685 707.748 174.069 708.644 174.56C709.561 175.051 710.329 175.573 710.948 176.128L707.588 180.448C706.99 180.085 706.318 179.776 705.572 179.52C704.825 179.243 704.057 179.04 703.268 178.912C702.5 178.763 701.764 178.688 701.06 178.688C700.377 178.688 699.78 178.731 699.268 178.816C698.777 178.88 698.382 179.008 698.084 179.2C697.785 179.371 697.636 179.627 697.636 179.968C697.636 180.267 697.806 180.512 698.148 180.704C698.489 180.896 698.905 181.045 699.396 181.152C699.908 181.259 700.42 181.344 700.932 181.408C701.444 181.451 701.87 181.493 702.212 181.536C703.449 181.685 704.644 181.899 705.796 182.176C706.948 182.432 707.972 182.816 708.868 183.328C709.785 183.819 710.5 184.501 711.012 185.376C711.524 186.229 711.78 187.339 711.78 188.704C711.78 190.347 711.31 191.733 710.372 192.864C709.433 193.995 708.174 194.859 706.596 195.456C705.017 196.032 703.246 196.32 701.284 196.32ZM733.935 196V173.6H740.847V196H733.935ZM718.095 196V173.6H725.007V196H718.095ZM720.687 187.904L720.751 181.888H737.839V187.904H720.687Z" fill="#DF3B57"/>
<path d="M518.255 196.32C516.271 196.32 514.447 196.032 512.783 195.456C511.141 194.859 509.711 194.037 508.495 192.992C507.301 191.947 506.373 190.709 505.711 189.28C505.071 187.851 504.751 186.304 504.751 184.64C504.751 182.955 505.082 181.408 505.743 180C506.405 178.571 507.333 177.333 508.527 176.288C509.743 175.243 511.173 174.432 512.815 173.856C514.458 173.259 516.261 172.96 518.223 172.96C520.229 172.96 522.053 173.248 523.695 173.824C525.338 174.4 526.757 175.221 527.951 176.288C529.167 177.333 530.095 178.571 530.735 180C531.397 181.408 531.727 182.944 531.727 184.608C531.727 186.315 531.397 187.883 530.735 189.312C530.095 190.72 529.167 191.957 527.951 193.024C526.757 194.069 525.338 194.88 523.695 195.456C522.053 196.032 520.239 196.32 518.255 196.32ZM518.255 189.92C519.194 189.92 520.058 189.792 520.847 189.536C521.637 189.259 522.309 188.885 522.863 188.416C523.439 187.925 523.887 187.36 524.207 186.72C524.527 186.08 524.687 185.387 524.687 184.64C524.687 183.893 524.527 183.2 524.207 182.56C523.887 181.92 523.439 181.365 522.863 180.896C522.309 180.405 521.626 180.032 520.815 179.776C520.026 179.499 519.173 179.36 518.255 179.36C517.317 179.36 516.453 179.499 515.663 179.776C514.874 180.032 514.181 180.395 513.583 180.864C513.007 181.333 512.559 181.899 512.239 182.56C511.941 183.2 511.791 183.893 511.791 184.64C511.791 185.387 511.941 186.091 512.239 186.752C512.559 187.392 513.007 187.947 513.583 188.416C514.181 188.885 514.874 189.259 515.663 189.536C516.453 189.792 517.317 189.92 518.255 189.92ZM538.502 196V173.6H550.342C552.219 173.6 553.808 173.899 555.11 174.496C556.432 175.072 557.435 175.904 558.118 176.992C558.8 178.08 559.142 179.371 559.142 180.864C559.142 182.4 558.768 183.755 558.022 184.928C557.296 186.101 556.294 187.019 555.014 187.68C553.734 188.32 552.272 188.64 550.63 188.64H544.966V196H538.502ZM552.517 196L545.734 185.888L552.87 185.088L560.294 196H552.517ZM544.966 183.84H549.67C550.203 183.84 550.662 183.744 551.046 183.552C551.43 183.36 551.739 183.083 551.974 182.72C552.208 182.357 552.326 181.909 552.326 181.376C552.326 180.843 552.208 180.405 551.974 180.064C551.739 179.723 551.408 179.467 550.982 179.296C550.576 179.125 550.096 179.04 549.542 179.04H544.966V183.84Z" fill="#EBEBEB"/>
<path d="M879.757 142.919L879.67 144H880.754H916.802H917.718L917.798 143.088L923.95 73.1708L965.339 73.1708L971.202 143.084L971.279 144H972.198H1008.25H1009.34L1009.24 142.912L1003.11 73.1708H1023H1024V72.1708V43V42L1023 42L866 42L865 42V43V72.1708V73.1708H866H885.414L879.757 142.919Z" stroke="#EBEBEB" stroke-width="2"/>
</svg>
